<svg id="visual" viewBox="0 0 960 540" width="960" height="540" xmlns="http://www.w3.org/2000/svg" xmlns:xlink="http://www.w3.org/1999/xlink" version="1.1"><path d="M0 223L53.3 233.8C106.7 244.7 213.3 266.3 320 290.3C426.7 314.3 533.3 340.7 640 338.2C746.7 335.7 853.3 304.3 906.7 288.7L960 273L960 541L906.7 541C853.3 541 746.7 541 640 541C533.3 541 426.7 541 320 541C213.3 541 106.7 541 53.3 541L0 541Z" fill="#66afbd"></path><path d="M0 292L53.3 306.2C106.7 320.3 213.3 348.7 320 357C426.7 365.3 533.3 353.7 640 365.5C746.7 377.3 853.3 412.7 906.7 430.3L960 448L960 541L906.7 541C853.3 541 746.7 541 640 541C533.3 541 426.7 541 320 541C213.3 541 106.7 541 53.3 541L0 541Z" fill="#5ea7c0"></path><path d="M0 381L53.3 395.8C106.7 410.7 213.3 440.3 320 447.2C426.7 454 533.3 438 640 424.2C746.7 410.3 853.3 398.7 906.7 392.8L960 387L960 541L906.7 541C853.3 541 746.7 541 640 541C533.3 541 426.7 541 320 541C213.3 541 106.7 541 53.3 541L0 541Z" fill="#5b9fc1"></path><path d="M0 476L53.3 474.2C106.7 472.3 213.3 468.7 320 458.3C426.7 448 533.3 431 640 417.2C746.7 403.3 853.3 392.7 906.7 387.3L960 382L960 541L906.7 541C853.3 541 746.7 541 640 541C533.3 541 426.7 541 320 541C213.3 541 106.7 541 53.3 541L0 541Z" fill="#5e96c0"></path><path d="M0 534L53.3 524.7C106.7 515.3 213.3 496.7 320 488.2C426.7 479.7 533.3 481.3 640 490.2C746.7 499 853.3 515 906.7 523L960 531L960 541L906.7 541C853.3 541 746.7 541 640 541C533.3 541 426.7 541 320 541C213.3 541 106.7 541 53.3 541L0 541Z" fill="#668cbd"></path></svg>