<svg id="visual" viewBox="0 0 900 600" width="900" height="600" xmlns="http://www.w3.org/2000/svg" xmlns:xlink="http://www.w3.org/1999/xlink" version="1.1"><path d="M0 79L50 77C100 75 200 71 300 74C400 77 500 87 600 80C700 73 800 49 850 37L900 25L900 0L850 0C800 0 700 0 600 0C500 0 400 0 300 0C200 0 100 0 50 0L0 0Z" fill="#668cbd"></path><path d="M0 175L50 185C100 195 200 215 300 203C400 191 500 147 600 146C700 145 800 187 850 208L900 229L900 23L850 35C800 47 700 71 600 78C500 85 400 75 300 72C200 69 100 73 50 75L0 77Z" fill="#6094c0"></path><path d="M0 289L50 295C100 301 200 313 300 299C400 285 500 245 600 253C700 261 800 317 850 345L900 373L900 227L850 206C800 185 700 143 600 144C500 145 400 189 300 201C200 213 100 193 50 183L0 173Z" fill="#5c9bc1"></path><path d="M0 415L50 413C100 411 200 407 300 417C400 427 500 451 600 473C700 495 800 515 850 525L900 535L900 371L850 343C800 315 700 259 600 251C500 243 400 283 300 297C200 311 100 299 50 293L0 287Z" fill="#5ba2c1"></path><path d="M0 559L50 561C100 563 200 567 300 557C400 547 500 523 600 526C700 529 800 559 850 574L900 589L900 533L850 523C800 513 700 493 600 471C500 449 400 425 300 415C200 405 100 409 50 411L0 413Z" fill="#5fa9bf"></path><path d="M0 601L50 601C100 601 200 601 300 601C400 601 500 601 600 601C700 601 800 601 850 601L900 601L900 587L850 572C800 557 700 527 600 524C500 521 400 545 300 555C200 565 100 561 50 559L0 557Z" fill="#66afbd"></path></svg>